<svg xmlns="http://www.w3.org/2000/svg" version="1.1" xmlns:xlink="http://www.w3.org/1999/xlink" xmlns:svgjs="http://svgjs.dev/svgjs" width="1000" height="1000" viewBox="0 0 1000 1000"><rect width="1000" height="1000" fill="#77d4fc"></rect><g transform="matrix(0.7,0,0,0.7,149.57576281971194,423.7278507165781)"><svg viewBox="0 0 396 87" data-background-color="#77d4fc" preserveAspectRatio="xMidYMid meet" height="219" width="1000" xmlns="http://www.w3.org/2000/svg" xmlns:xlink="http://www.w3.org/1999/xlink"><defs></defs><g id="tight-bounds" transform="matrix(1,0,0,1,0.2399972976915592,-0.21443582741218847)"><svg viewBox="0 0 395.52 87.42887165482439" height="87.42887165482439" width="395.52"><g><svg viewBox="0 0 395.52 87.42887165482439" height="87.42887165482439" width="395.52"><g><svg viewBox="0 0 395.52 87.42887165482439" height="87.42887165482439" width="395.52"><g><svg viewBox="0 0 537.1828641786025 118.74315252690634" height="87.42887165482439" width="395.52"><g transform="matrix(1,0,0,1,141.6628641786025,16.41095668063612)"><svg viewBox="0 0 395.52 85.9212391656341" height="85.9212391656341" width="395.52"><g><svg viewBox="0 0 395.52 85.9212391656341" height="85.9212391656341" width="395.52"><g><svg viewBox="0 0 395.52 85.9212391656341" height="85.9212391656341" width="395.52"><g transform="matrix(1,0,0,1,0,0)"><svg width="395.52" viewBox="3.75 -36.5 219.47999572753906 47.68571472167969" height="85.9212391656341" data-palette-color="#000000"><path d="M17.05 0.5L17.05 0.5Q13.8 0.5 11.23-1.2 8.65-2.9 7.15-5.4L7.15-5.4 7.15 10.65 3.75 10.65 3.75-26.05 6.8-26.05 6.8-21Q8.35-23.45 10.95-24.98 13.55-26.5 16.5-26.5L16.5-26.5Q19.2-26.5 21.45-25.38 23.7-24.25 25.35-22.35 27-20.45 27.93-18.03 28.85-15.6 28.85-13L28.85-13Q28.85-9.35 27.38-6.28 25.9-3.2 23.25-1.35 20.6 0.5 17.05 0.5ZM16.1-2.5L16.1-2.5Q18.25-2.5 19.95-3.38 21.65-4.25 22.88-5.75 24.1-7.25 24.75-9.13 25.4-11 25.4-13L25.4-13Q25.4-15.1 24.68-17 23.95-18.9 22.6-20.35 21.25-21.8 19.5-22.65 17.75-23.5 15.7-23.5L15.7-23.5Q14.4-23.5 13-23 11.6-22.5 10.33-21.58 9.05-20.65 8.2-19.5 7.35-18.35 7.15-17.05L7.15-17.05 7.15-9.05Q7.95-7.2 9.3-5.73 10.65-4.25 12.43-3.38 14.2-2.5 16.1-2.5ZM35.2 11.05L35.2 8Q35.9 8.05 36.55 8.08 37.2 8.1 37.5 8L37.5 8Q38.1 7.9 38.65 7.3 39.2 6.7 39.95 5 40.7 3.3 42.05 0L42.05 0 30.7-26.05 34.3-26.05 43.85-3.5 52.65-26.05 56.05-26.05 42.55 7.55Q42.2 8.5 41.5 9.33 40.8 10.15 39.77 10.63 38.75 11.1 37.25 11.15L37.25 11.15Q36.8 11.2 36.32 11.18 35.85 11.15 35.2 11.05L35.2 11.05ZM60.95-4.75L60.95-36.5 64.34-36.5 64.34-5.9Q64.34-3.95 65.05-3.35 65.75-2.75 66.75-2.75L66.75-2.75Q67.65-2.75 68.55-2.95 69.45-3.15 70.09-3.35L70.09-3.35 70.7-0.6Q69.75-0.2 68.37 0.05 67 0.3 66 0.3L66 0.3Q63.7 0.3 62.32-1.05 60.95-2.4 60.95-4.75L60.95-4.75ZM74.14-10.75L74.14-10.75 74.14-26.05 77.54-26.05 77.54-11.35Q77.54-6.9 79.07-4.7 80.59-2.5 83.59-2.5L83.59-2.5Q85.59-2.5 87.47-3.38 89.34-4.25 90.79-5.88 92.24-7.5 92.99-9.65L92.99-9.65 92.99-26.05 96.39-26.05 96.39-4.1Q96.39-3.4 96.69-3.08 96.99-2.75 97.59-2.7L97.59-2.7 97.59 0Q96.99 0.05 96.64 0.08 96.29 0.1 95.99 0.1L95.99 0.1Q94.99 0 94.27-0.7 93.54-1.4 93.49-2.4L93.49-2.4 93.39-5.9Q91.69-2.9 88.77-1.2 85.84 0.5 82.44 0.5L82.44 0.5Q78.34 0.5 76.24-2.35 74.14-5.2 74.14-10.75ZM142.84-15.25L142.84 0 139.44 0 139.44-14.55Q139.44-19.1 137.99-21.25 136.54-23.4 133.69-23.4L133.69-23.4Q130.74-23.4 128.42-21.3 126.09-19.2 125.14-15.9L125.14-15.9 125.14 0 121.74 0 121.74-14.55Q121.74-19.15 120.34-21.28 118.94-23.4 116.04-23.4L116.04-23.4Q113.14-23.4 110.79-21.35 108.44-19.3 107.49-15.95L107.49-15.95 107.49 0 104.09 0 104.09-26.05 107.19-26.05 107.19-20.15Q108.84-23.2 111.42-24.85 113.99-26.5 117.14-26.5L117.14-26.5Q120.39-26.5 122.39-24.65 124.39-22.8 124.84-19.8L124.84-19.8Q126.64-23.1 129.17-24.8 131.69-26.5 134.89-26.5L134.89-26.5Q137.09-26.5 138.62-25.7 140.14-24.9 141.07-23.43 141.99-21.95 142.42-19.88 142.84-17.8 142.84-15.25L142.84-15.25ZM162.79 0.5L162.79 0.5Q159.74 0.5 157.14-1.07 154.54-2.65 153.09-5.05L153.09-5.05 153.09 0 150.04 0 150.04-36.5 153.44-36.5 153.44-20.6Q155.19-23.25 157.64-24.88 160.09-26.5 163.34-26.5L163.34-26.5Q166.09-26.5 168.26-25.35 170.44-24.2 171.99-22.28 173.54-20.35 174.34-17.93 175.14-15.5 175.14-12.95L175.14-12.95Q175.14-10.2 174.21-7.8 173.29-5.4 171.59-3.53 169.89-1.65 167.66-0.58 165.44 0.5 162.79 0.5ZM161.99-2.5L161.99-2.5Q164.09-2.5 165.89-3.35 167.69-4.2 168.99-5.7 170.29-7.2 170.99-9.08 171.69-10.95 171.69-12.95L171.69-12.95Q171.69-15.7 170.51-18.13 169.34-20.55 167.26-22.03 165.19-23.5 162.39-23.5L162.39-23.5Q160.39-23.5 158.66-22.6 156.94-21.7 155.61-20.23 154.29-18.75 153.44-17L153.44-17 153.44-8.9Q153.64-7.55 154.49-6.38 155.34-5.2 156.61-4.35 157.89-3.5 159.29-3 160.69-2.5 161.99-2.5ZM192.14 0.5L192.14 0.5Q189.34 0.5 186.94-0.58 184.54-1.65 182.79-3.53 181.04-5.4 180.06-7.85 179.09-10.3 179.09-13.1L179.09-13.1Q179.09-16.75 180.76-19.8 182.44-22.85 185.39-24.68 188.34-26.5 192.09-26.5L192.09-26.5Q195.94-26.5 198.81-24.65 201.69-22.8 203.34-19.78 204.99-16.75 204.99-13.15L204.99-13.15Q204.99-12.75 204.99-12.38 204.99-12 204.94-11.8L204.94-11.8 182.64-11.8Q182.89-9 184.21-6.83 185.54-4.65 187.66-3.38 189.79-2.1 192.29-2.1L192.29-2.1Q194.84-2.1 197.11-3.4 199.39-4.7 200.29-6.8L200.29-6.8 203.24-6Q202.44-4.15 200.79-2.65 199.14-1.15 196.91-0.33 194.69 0.5 192.14 0.5ZM182.54-14.25L182.54-14.25 201.79-14.25Q201.59-17.1 200.26-19.25 198.94-21.4 196.81-22.63 194.69-23.85 192.14-23.85L192.14-23.85Q189.59-23.85 187.49-22.63 185.39-21.4 184.06-19.23 182.74-17.05 182.54-14.25ZM223.23-26.15L223.23-23.05Q219.83-22.95 217.26-21.15 214.68-19.35 213.63-16.2L213.63-16.2 213.63 0 210.23 0 210.23-26.05 213.43-26.05 213.43-19.8Q214.78-22.55 217.01-24.25 219.23-25.95 221.73-26.15L221.73-26.15Q222.23-26.2 222.61-26.2 222.98-26.2 223.23-26.15L223.23-26.15Z" opacity="1" transform="matrix(1,0,0,1,0,0)" fill="#000000" class="undefined-text-0" data-fill-palette-color="primary" id="text-0"></path></svg></g></svg></g></svg></g></svg></g><g><svg viewBox="0 0 129.1248932745965 118.74315252690634" height="118.74315252690634" width="129.1248932745965"><g><svg xmlns="http://www.w3.org/2000/svg" xmlns:xlink="http://www.w3.org/1999/xlink" version="1.1" x="0" y="0" viewBox="0.8650002479553223 3.634998321533203 89.20299530029297 82.031005859375" enable-background="new 0 0 90 90" xml:space="preserve" width="129.1248932745965" height="118.74315252690634" class="icon-icon-0" data-fill-palette-color="accent" id="icon-0"><path d="M75.723 21.843c-0.774 0-1.534 0.077-2.284 0.196 0.382-1.301 0.584-2.663 0.584-4.057 0-7.911-6.436-14.347-14.346-14.347-3.836 0-7.427 1.495-10.135 4.202L33 21.233l-11.069 9.383c-3.431 3.027-5.611 7.443-5.611 12.367 0 1.207 0.138 2.381 0.385 3.515L5.779 57.425c-0.047 0.046-0.093 0.092-0.138 0.138L5.484 57.72l0.007 0.007c-2.858 2.969-4.626 6.994-4.626 11.431 0 9.103 7.405 16.508 16.508 16.508 6.142 0 11.5-3.378 14.343-8.367 2.843 4.989 8.202 8.367 14.343 8.367 5.954 0 11.166-3.179 14.07-7.919l27.562-34.042 0.668-0.723c1.437-2.282 1.709-4.085 1.709-6.794C90.069 28.278 83.634 21.843 75.723 21.843zM53.294 10.167c1.797-1.475 4.024-2.28 6.384-2.28 2.943 0 5.587 1.274 7.434 3.29L52.128 27.288l3.113 2.896L69.33 15.036c0.285 0.933 0.441 1.922 0.441 2.947 0 1.775-0.463 3.476-1.318 4.978l-1.096 1.269c-0.335 0.28-1.466 1.502-1.779 1.815L49.153 45.304c0.108-0.76 0.183-1.531 0.183-2.321 0-8.958-7.176-16.256-16.08-16.486L53.294 10.167zM18.336 50.88c0.372 0.68 0.804 1.321 1.265 1.939-0.73-0.099-1.47-0.168-2.227-0.168-0.287 0-0.568 0.029-0.852 0.043L18.336 50.88zM29.591 69.919c-0.396 6.403-5.716 11.495-12.217 11.495-6.758 0-12.256-5.498-12.256-12.256 0-3.337 1.344-6.364 3.516-8.576l0.164-0.164c2.212-2.171 5.239-3.516 8.576-3.516 6.501 0 11.821 5.092 12.217 11.495-0.012 0.254-0.039 0.504-0.039 0.761S29.58 69.665 29.591 69.919zM31.717 61.018c-0.336-0.59-0.712-1.153-1.116-1.695 0.693 0.094 1.394 0.157 2.111 0.162C32.354 59.978 32.02 60.487 31.717 61.018zM20.572 42.983c0-6.758 5.498-12.256 12.256-12.256s12.256 5.498 12.256 12.256-5.498 12.256-12.256 12.256S20.572 49.741 20.572 42.983zM56.675 75.258L55.54 76.66l0.119 0.096c-2.247 2.832-5.711 4.658-9.598 4.658-6.501 0-11.821-5.092-12.217-11.495 0.012-0.254 0.039-0.504 0.039-0.761s-0.027-0.507-0.039-0.761c0.396-6.403 5.716-11.495 12.217-11.495 6.758 0 12.256 5.498 12.256 12.256C58.316 71.38 57.713 73.46 56.675 75.258zM84.882 40.42l-22.37 27.629c-0.107-1.596-0.441-3.128-0.971-4.569L76.132 46.69l-3.209-2.789L59.395 59.467c-2.59-3.554-6.556-6.032-11.114-6.649l21.228-24.575c0.08-0.063 0.164-0.122 0.246-0.182 0 0 0.278-0.169 0.386-0.284 1.641-1.093 3.566-1.681 5.582-1.681 5.566 0 10.095 4.528 10.095 10.095C85.817 37.662 85.492 39.101 84.882 40.42z" fill="#000000" data-fill-palette-color="accent"></path><path d="M17 73.821c-2 0-4.29-1.821-4.29-4.821H8.458c0 5 3.542 9.073 8.542 9.073v-2.145c0.124 0.007 0.247 0.019 0.374 0.019L17 75.574V73.821z" fill="#000000" data-fill-palette-color="accent"></path><path d="M46 73.821c-1.22 0-2.196-0.315-2.94-0.874l-0.699-0.699c-0.625-0.813-0.964-1.904-0.964-3.249h-4.252c0 5 3.854 9.073 8.854 9.073v-2.129c0.02 0 0.04 0.003 0.061 0.003L46 75.887V73.821z" fill="#000000" data-fill-palette-color="accent"></path><path d="M29.214 46.158c-0.667-0.773-1.048-1.823-1.048-3.158h-2.109L26 42.983c0 0.006 0 0.011 0 0.017h-2.087c0 5 4.087 8.898 9.087 8.898v-4.252c-1.4 0-2.533-0.372-3.357-1.06L29.214 46.158z" fill="#000000" data-fill-palette-color="accent"></path></svg></g></svg></g></svg></g></svg></g></svg></g></svg><rect width="395.52" height="87.42887165482439" fill="none" stroke="none" visibility="hidden"></rect></g></svg></g></svg>