<svg xmlns="http://www.w3.org/2000/svg" version="1.1" xmlns:xlink="http://www.w3.org/1999/xlink" xmlns:svgjs="http://svgjs.dev/svgjs" width="128" height="128" viewBox="0 0 128 128"><g transform="matrix(0.8046875,0,0,0.8046875,12.506335372881367,17.15506953545558)"><svg viewBox="0 0 59 54" data-background-color="#77d4fc" preserveAspectRatio="xMidYMid meet" height="117" width="128" xmlns="http://www.w3.org/2000/svg" xmlns:xlink="http://www.w3.org/1999/xlink"><defs></defs><g id="tight-bounds" transform="matrix(1,0,0,1,-0.003629000000003657,-0.13151113011940652)"><svg viewBox="0 0 59.00725799999999 54.2630222602388" height="54.2630222602388" width="59.00725799999999"><g><svg viewBox="0 0 59.00725799999999 54.2630222602388" height="54.2630222602388" width="59.00725799999999"><g><svg viewBox="0 0 59.00725799999999 54.2630222602388" height="54.2630222602388" width="59.00725799999999"><g><svg viewBox="0 0 59.00725799999999 54.2630222602388" height="54.2630222602388" width="59.00725799999999"><g><svg viewBox="0 0 59.00725799999999 54.2630222602388" height="54.2630222602388" width="59.00725799999999"><g><svg viewBox="0 0 59.00725799999999 54.2630222602388" height="54.2630222602388" width="59.00725799999999"><g><svg viewBox="0 0 59.00725799999999 54.2630222602388" height="54.2630222602388" width="59.00725799999999"><g><svg xmlns="http://www.w3.org/2000/svg" xmlns:xlink="http://www.w3.org/1999/xlink" version="1.1" x="0" y="0" viewBox="0.8649999999999993 3.635 89.20300011643135 82.03099999999999" enable-background="new 0 0 90 90" xml:space="preserve" width="59.00725799999999" height="54.2630222602388" class="icon-icon-0" data-fill-palette-color="accent" id="icon-0"><path d="M75.723 21.843c-0.774 0-1.534 0.077-2.284 0.196 0.382-1.301 0.584-2.663 0.584-4.057 0-7.911-6.436-14.347-14.346-14.347-3.836 0-7.427 1.495-10.135 4.202L33 21.233l-11.069 9.383c-3.431 3.027-5.611 7.443-5.611 12.367 0 1.207 0.138 2.381 0.385 3.515L5.779 57.425c-0.047 0.046-0.093 0.092-0.138 0.138L5.484 57.72l0.007 0.007c-2.858 2.969-4.626 6.994-4.626 11.431 0 9.103 7.405 16.508 16.508 16.508 6.142 0 11.5-3.378 14.343-8.367 2.843 4.989 8.202 8.367 14.343 8.367 5.954 0 11.166-3.179 14.07-7.919l27.562-34.042 0.668-0.723c1.437-2.282 1.709-4.085 1.709-6.794C90.069 28.278 83.634 21.843 75.723 21.843zM53.294 10.167c1.797-1.475 4.024-2.28 6.384-2.28 2.943 0 5.587 1.274 7.434 3.29L52.128 27.288l3.113 2.896L69.33 15.036c0.285 0.933 0.441 1.922 0.441 2.947 0 1.775-0.463 3.476-1.318 4.978l-1.096 1.269c-0.335 0.28-1.466 1.502-1.779 1.815L49.153 45.304c0.108-0.76 0.183-1.531 0.183-2.321 0-8.958-7.176-16.256-16.08-16.486L53.294 10.167zM18.336 50.88c0.372 0.68 0.804 1.321 1.265 1.939-0.73-0.099-1.47-0.168-2.227-0.168-0.287 0-0.568 0.029-0.852 0.043L18.336 50.88zM29.591 69.919c-0.396 6.403-5.716 11.495-12.217 11.495-6.758 0-12.256-5.498-12.256-12.256 0-3.337 1.344-6.364 3.516-8.576l0.164-0.164c2.212-2.171 5.239-3.516 8.576-3.516 6.501 0 11.821 5.092 12.217 11.495-0.012 0.254-0.039 0.504-0.039 0.761S29.58 69.665 29.591 69.919zM31.717 61.018c-0.336-0.59-0.712-1.153-1.116-1.695 0.693 0.094 1.394 0.157 2.111 0.162C32.354 59.978 32.02 60.487 31.717 61.018zM20.572 42.983c0-6.758 5.498-12.256 12.256-12.256s12.256 5.498 12.256 12.256-5.498 12.256-12.256 12.256S20.572 49.741 20.572 42.983zM56.675 75.258L55.54 76.66l0.119 0.096c-2.247 2.832-5.711 4.658-9.598 4.658-6.501 0-11.821-5.092-12.217-11.495 0.012-0.254 0.039-0.504 0.039-0.761s-0.027-0.507-0.039-0.761c0.396-6.403 5.716-11.495 12.217-11.495 6.758 0 12.256 5.498 12.256 12.256C58.316 71.38 57.713 73.46 56.675 75.258zM84.882 40.42l-22.37 27.629c-0.107-1.596-0.441-3.128-0.971-4.569L76.132 46.69l-3.209-2.789L59.395 59.467c-2.59-3.554-6.556-6.032-11.114-6.649l21.228-24.575c0.08-0.063 0.164-0.122 0.246-0.182 0 0 0.278-0.169 0.386-0.284 1.641-1.093 3.566-1.681 5.582-1.681 5.566 0 10.095 4.528 10.095 10.095C85.817 37.662 85.492 39.101 84.882 40.42z" fill="#000000" data-fill-palette-color="accent"></path><path d="M17 73.821c-2 0-4.29-1.821-4.29-4.821H8.458c0 5 3.542 9.073 8.542 9.073v-2.145c0.124 0.007 0.247 0.019 0.374 0.019L17 75.574V73.821z" fill="#000000" data-fill-palette-color="accent"></path><path d="M46 73.821c-1.22 0-2.196-0.315-2.94-0.874l-0.699-0.699c-0.625-0.813-0.964-1.904-0.964-3.249h-4.252c0 5 3.854 9.073 8.854 9.073v-2.129c0.02 0 0.04 0.003 0.061 0.003L46 75.887V73.821z" fill="#000000" data-fill-palette-color="accent"></path><path d="M29.214 46.158c-0.667-0.773-1.048-1.823-1.048-3.158h-2.109L26 42.983c0 0.006 0 0.011 0 0.017h-2.087c0 5 4.087 8.898 9.087 8.898v-4.252c-1.4 0-2.533-0.372-3.357-1.06L29.214 46.158z" fill="#000000" data-fill-palette-color="accent"></path></svg><g></g></g></svg></g></svg></g></svg></g></svg></g></svg></g></svg></g></svg><rect width="59.00725799999999" height="54.2630222602388" fill="none" stroke="none" visibility="hidden"></rect></g></svg></g></svg>